<?xml version="1.0" encoding="utf-8"?>
<!-- Generator: Adobe Illustrator 27.8.1, SVG Export Plug-In . SVG Version: 6.00 Build 0)  -->
<svg version="1.1" id="Layer_1" xmlns="http://www.w3.org/2000/svg" xmlns:xlink="http://www.w3.org/1999/xlink" x="0px" y="0px"
	 viewBox="0 0 237.6 63.35" style="enable-background:new 0 0 237.6 63.35;" xml:space="preserve">
<style type="text/css">
	.st0{fill:#FFFFFF;}
</style>
<g>
	<path class="st0" d="M24.2,7.48v4.6h-6.89V30h-5.28V12.08H5.19v-4.6H24.2z"/>
	<path class="st0" d="M35.9,27.8c-1.79-1.79-2.69-4.3-2.69-7.51V7.48h5.28v12.81c0,1.72,0.43,3.07,1.3,4.06
		c0.87,0.99,2.09,1.48,3.65,1.48c1.52,0,2.72-0.49,3.6-1.48c0.88-0.99,1.32-2.34,1.32-4.06V7.48h5.28v12.81
		c0,3.22-0.89,5.72-2.67,7.51c-1.78,1.79-4.29,2.69-7.53,2.69C40.21,30.48,37.69,29.59,35.9,27.8z"/>
	<path class="st0" d="M72.99,22.57h-3.06V30h-5.28V7.48h10.97c1.63,0,3.06,0.32,4.28,0.95c1.22,0.63,2.17,1.53,2.83,2.69
		s1,2.49,1,3.99c0,1.72-0.45,3.19-1.34,4.41s-2.15,2.09-3.78,2.61L84.99,30h-6.28L72.99,22.57z M77.6,12.82
		c-0.61-0.56-1.48-0.84-2.59-0.84H69.9v6.34h5.12c1.14,0,2.01-0.27,2.61-0.82c0.6-0.55,0.9-1.32,0.9-2.33
		C78.52,14.16,78.22,13.38,77.6,12.82z"/>
	<path class="st0" d="M109.25,7.48h5.25V30h-4.73l-10.2-13.93l0.06,6.08V30h-5.25V7.48h4.73l10.2,14l-0.06-6.02V7.48z"/>
	<path class="st0" d="M130.28,29.04c-1.84-0.99-3.25-2.37-4.25-4.15c-1-1.78-1.5-3.83-1.5-6.15c0-2.32,0.51-4.37,1.53-6.16
		c1.02-1.79,2.44-3.17,4.26-4.15c1.82-0.98,3.9-1.46,6.24-1.46c3.33,0,6.18,1.17,8.56,3.51l-3.25,3.25
		c-1.44-1.37-3.17-2.06-5.18-2.06c-1.35,0-2.55,0.29-3.59,0.89c-1.04,0.59-1.85,1.42-2.41,2.49c-0.57,1.07-0.85,2.31-0.85,3.7
		c0,1.4,0.28,2.63,0.85,3.7c0.57,1.07,1.37,1.9,2.41,2.49c1.04,0.59,2.24,0.89,3.59,0.89c1.07,0,2.1-0.19,3.09-0.58
		s1.84-0.94,2.57-1.67l3.09,3.44c-2.42,2.34-5.35,3.51-8.79,3.51C134.24,30.51,132.11,30.02,130.28,29.04z"/>
	<path class="st0" d="M158.76,29.08c-1.84-0.98-3.25-2.35-4.25-4.13c-1-1.78-1.5-3.85-1.5-6.21c0-2.36,0.5-4.43,1.5-6.21
		c1-1.78,2.41-3.16,4.25-4.13c1.83-0.98,3.96-1.46,6.39-1.46s4.55,0.49,6.39,1.46c1.84,0.98,3.25,2.35,4.25,4.13
		c1,1.78,1.5,3.85,1.5,6.21c0,2.36-0.5,4.43-1.5,6.21c-1,1.78-2.41,3.16-4.25,4.13c-1.83,0.98-3.96,1.46-6.39,1.46
		S160.59,30.06,158.76,29.08z M168.73,24.96c1.04-0.59,1.85-1.42,2.41-2.49c0.57-1.07,0.85-2.32,0.85-3.73
		c0-1.42-0.28-2.66-0.85-3.73s-1.37-1.9-2.41-2.49c-1.04-0.59-2.24-0.89-3.59-0.89s-2.54,0.3-3.57,0.89
		c-1.03,0.59-1.83,1.42-2.4,2.49c-0.57,1.07-0.85,2.32-0.85,3.73c0,1.42,0.28,2.66,0.85,3.73c0.57,1.07,1.37,1.9,2.4,2.49
		c1.03,0.59,2.22,0.89,3.57,0.89S167.7,25.55,168.73,24.96z"/>
	<path class="st0" d="M203.95,30l-1.67-4.06h-11.1L189.5,30h-5.63l10.1-22.52h5.63L209.65,30H203.95z M196.78,12.53l-3.7,8.88h7.34
		L196.78,12.53z"/>
	<path class="st0" d="M233.33,7.48v4.6h-6.89V30h-5.28V12.08h-6.85v-4.6H233.33z"/>
</g>
<circle class="st0" cx="34.71" cy="42.6" r="1.44"/>
<circle class="st0" cx="39.1" cy="42.6" r="1.44"/>
<circle class="st0" cx="43.41" cy="42.6" r="1.44"/>
<circle class="st0" cx="41.99" cy="55.34" r="1.44"/>
<circle class="st0" cx="46.38" cy="55.34" r="1.44"/>
<circle class="st0" cx="50.69" cy="55.34" r="1.44"/>
<circle class="st0" cx="70.39" cy="55.34" r="1.44"/>
<circle class="st0" cx="74.7" cy="55.34" r="1.44"/>
<circle class="st0" cx="99.51" cy="55.34" r="1.44"/>
<circle class="st0" cx="103.82" cy="55.34" r="1.44"/>
<circle class="st0" cx="85.47" cy="55.34" r="1.44"/>
<circle class="st0" cx="47.88" cy="42.6" r="1.44"/>
<circle class="st0" cx="58.39" cy="42.6" r="1.44"/>
<circle class="st0" cx="69.27" cy="42.6" r="1.44"/>
<circle class="st0" cx="86.19" cy="42.6" r="1.44"/>
<circle class="st0" cx="177.49" cy="42.6" r="1.44"/>
<circle class="st0" cx="191.12" cy="42.6" r="1.44"/>
<rect x="180.53" y="41.41" class="st0" width="7.55" height="2.42"/>
<circle class="st0" cx="186.64" cy="55.34" r="1.44"/>
<rect x="176.05" y="54.15" class="st0" width="7.55" height="2.42"/>
<rect x="160.7" y="41.41" class="st0" width="7.55" height="2.42"/>
<rect x="150.01" y="41.41" class="st0" width="7.55" height="2.42"/>
<rect x="139.48" y="41.31" class="st0" width="7.55" height="2.42"/>
<rect x="117.22" y="41.41" class="st0" width="7.55" height="2.42"/>
<rect x="106.53" y="41.41" class="st0" width="7.55" height="2.42"/>
<rect x="95.99" y="41.31" class="st0" width="7.55" height="2.42"/>
<rect x="88.72" y="54.13" class="st0" width="7.55" height="2.42"/>
<circle class="st0" cx="128.32" cy="55.34" r="1.44"/>
<circle class="st0" cx="132.63" cy="55.34" r="1.44"/>
<circle class="st0" cx="162.32" cy="55.34" r="1.44"/>
<circle class="st0" cx="166.63" cy="55.34" r="1.44"/>
<circle class="st0" cx="114.28" cy="55.34" r="1.44"/>
<rect x="117.53" y="54.13" class="st0" width="7.55" height="2.42"/>
<circle class="st0" cx="142.69" cy="55.34" r="1.44"/>
<rect x="145.93" y="54.13" class="st0" width="7.55" height="2.42"/>
<rect x="73.95" y="41.31" class="st0" width="7.55" height="2.42"/>
<rect x="53.68" y="54.13" class="st0" width="7.55" height="2.42"/>
</svg>
